<?xml version="1.0" encoding="utf-8"?>
<!-- Generator: Adobe Illustrator 14.0.0, SVG Export Plug-In  -->
<!DOCTYPE svg PUBLIC "-//W3C//DTD SVG 1.1//EN" "http://www.w3.org/Graphics/SVG/1.1/DTD/svg11.dtd" [
	<!ENTITY ns_flows "http://ns.adobe.com/Flows/1.0/">
]>
<svg version="1.1"
	 xmlns="http://www.w3.org/2000/svg" xmlns:xlink="http://www.w3.org/1999/xlink" xmlns:a="http://ns.adobe.com/AdobeSVGViewerExtensions/3.0/"
	 x="0px" y="0px" width="50px" height="50px" viewBox="0 0 50 50" enable-background="new 0 0 50 50" xml:space="preserve">
<defs>
</defs>
<g>
	<defs>
		<rect id="SVGID_1_" x="0" width="50" height="50"/>
	</defs>
	<clipPath id="SVGID_2_">
		<use xlink:href="#SVGID_1_"  overflow="visible"/>
	</clipPath>
	<path clip-path="url(#SVGID_2_)" fill="#FFFFFF" d="M35.105,0h-20.21C6.682,0,0,6.682,0,14.896v20.209
		c0,8.213,6.682,14.896,14.895,14.896h20.21C43.318,50.001,50,43.317,50,35.104V14.896C50,6.682,43.318,0,35.105,0 M44.97,35.104
		c0,5.448-4.417,9.865-9.865,9.865h-20.21c-5.448,0-9.864-4.417-9.864-9.865V14.896c0-5.449,4.416-9.866,9.864-9.866h20.21
		c5.448,0,9.865,4.417,9.865,9.866V35.104z"/>
	<path clip-path="url(#SVGID_2_)" fill="#FFFFFF" d="M25,12.068c-7.13,0-12.932,5.801-12.932,12.932
		c0,7.13,5.802,12.931,12.932,12.931c7.131,0,12.932-5.801,12.932-12.931C37.932,17.87,32.131,12.068,25,12.068 M25,32.901
		c-4.364,0-7.902-3.537-7.902-7.901c0-4.364,3.538-7.902,7.902-7.902c4.364,0,7.901,3.538,7.901,7.902
		C32.902,29.364,29.365,32.901,25,32.901"/>
	<path clip-path="url(#SVGID_2_)" fill="#FFFFFF" d="M37.957,9.066c-1.711,0-3.099,1.388-3.099,3.099s1.388,3.099,3.099,3.099
		c1.712,0,3.099-1.388,3.099-3.099S39.668,9.066,37.957,9.066"/>
</g>
</svg>
