<?xml version="1.0" encoding="utf-8"?>
<!-- Generator: Adobe Illustrator 14.0.0, SVG Export Plug-In  -->
<!DOCTYPE svg PUBLIC "-//W3C//DTD SVG 1.1//EN" "http://www.w3.org/Graphics/SVG/1.1/DTD/svg11.dtd" [
	<!ENTITY ns_flows "http://ns.adobe.com/Flows/1.0/">
]>
<svg version="1.1"
	 xmlns="http://www.w3.org/2000/svg" xmlns:xlink="http://www.w3.org/1999/xlink" xmlns:a="http://ns.adobe.com/AdobeSVGViewerExtensions/3.0/"
	 x="0px" y="0px" width="50px" height="50px" viewBox="0 0 50 50" enable-background="new 0 0 50 50" xml:space="preserve">
<defs>
</defs>
<g>
	<defs>
		<rect id="SVGID_1_" x="0" width="50" height="50"/>
	</defs>
	<clipPath id="SVGID_2_">
		<use xlink:href="#SVGID_1_"  overflow="visible"/>
	</clipPath>
	<path clip-path="url(#SVGID_2_)" fill="#FFFFFF" d="M35.105,0H14.896C6.682,0,0,6.682,0,14.896v20.209
		c0,8.213,6.682,14.896,14.896,14.896h20.209C43.318,50.001,50,43.317,50,35.104V14.896C50,6.682,43.318,0,35.105,0 M44.97,35.104
		c0,5.448-4.417,9.865-9.865,9.865H14.896c-5.448,0-9.865-4.417-9.865-9.865V14.896c0-5.449,4.417-9.865,9.865-9.865h20.209
		c5.448,0,9.865,4.416,9.865,9.865V35.104z"/>
	<path clip-path="url(#SVGID_2_)" fill="#FFFFFF" d="M10.604,21.76c0,3.22,1.983,5.972,4.793,7.112l2.431-4.509
		c-1.244-0.218-2.194-1.298-2.194-2.603c0-1.46,1.188-2.647,2.648-2.647h0.001h3.191v18.406h5.03v-8.081h8.601v-5.03h-8.601v-5.295
		h12.037v-5.031H18.282C14.042,14.082,10.604,17.52,10.604,21.76"/>
</g>
</svg>
