<?xml version="1.0" standalone="no"?>
<!DOCTYPE svg PUBLIC "-//W3C//DTD SVG 1.1//EN" "http://www.w3.org/Graphics/SVG/1.1/DTD/svg11.dtd" >
<svg xmlns="http://www.w3.org/2000/svg" xmlns:xlink="http://www.w3.org/1999/xlink" version="1.1">
<metadata></metadata>
<defs>
<font id="sf_ui_displayregular" horiz-adv-x="1239" >
<font-face units-per-em="2048" ascent="1638" descent="-410" />
<missing-glyph horiz-adv-x="490" />
<glyph horiz-adv-x="0" />
<glyph horiz-adv-x="682" />
<glyph unicode=" "  horiz-adv-x="490" />
<glyph unicode="&#x09;" horiz-adv-x="490" />
<glyph unicode="&#xa0;" horiz-adv-x="490" />
<glyph unicode="!" horiz-adv-x="546" d="M158 104q0 49 33 81q33 33 81 33q49 0 81 -33q33 -32 33 -81q0 -48 -33 -81q-32 -33 -81 -33q-48 0 -81 33t-33 81zM182 1443h180l-12 -964h-156z" />
<glyph unicode="&#x22;" horiz-adv-x="807" d="M134 934v509h160v-509h-160zM511 934v509h160v-509h-160z" />
<glyph unicode="#" horiz-adv-x="1206" d="M35 413l28 144h219l69 344h-205l29 143h205l83 399h142l-80 -399h306l83 399h143l-82 -399h231l-28 -143h-233l-71 -344h219l-28 -144h-220l-84 -413h-143l84 413h-308l-84 -413h-142l83 413h-216zM422 554h310l71 349h-310z" />
<glyph unicode="$" d="M104 395h171q8 -100 81 -164t197 -79v520l-80 22q-161 42 -247 138q-87 96 -87 235q0 164 111 269t303 124v140h134v-139q187 -16 302 -123q114 -107 119 -269h-170q-3 93 -71 158q-69 66 -180 79v-489l85 -21q361 -96 361 -388q0 -177 -118 -285q-117 -108 -328 -125 v-135h-134v134q-203 15 -325 123q-123 108 -124 275zM311 1077q0 -180 242 -231v460q-105 -6 -173 -70q-69 -65 -69 -159zM687 149q130 7 202 71q71 64 71 174q0 193 -273 251v-496z" />
<glyph unicode="%" horiz-adv-x="1508" d="M49 1102q0 163 83 261t220 98t220 -98q82 -98 82 -261q0 -164 -82 -262q-83 -98 -220 -98t-220 98q-83 99 -83 262zM136 0l1056 1443h172l-1054 -1443h-174zM209 1102q0 -110 39 -174q38 -64 104 -64t104 64t38 174q0 111 -37 174q-38 62 -105 62q-66 0 -104 -64 q-39 -63 -39 -172zM852 344q0 163 83 261t220 98t220 -98q82 -98 82 -261q0 -164 -82 -262q-83 -98 -220 -98t-220 98q-83 99 -83 262zM1012 344q0 -110 39 -174q38 -64 104 -64t104 64t38 174q0 111 -37 174q-38 62 -105 62q-66 0 -104 -64q-39 -63 -39 -172z" />
<glyph unicode="&#x26;" horiz-adv-x="1370" d="M81 384q0 250 283 400q52 27 55 28q-179 190 -179 335q0 137 104 229q104 91 260 91q159 0 262 -91t103 -231q0 -110 -72 -197q-72 -86 -237 -173l357 -385q69 129 69 384v43h166v-44q0 -317 -119 -504l253 -269h-226l-134 145q-191 -169 -461 -169q-214 0 -349 114 t-135 294zM259 396q0 -121 89 -195q89 -75 233 -75q214 0 340 134l-406 445q-29 -13 -48 -26q-208 -127 -208 -283zM410 1137q0 -107 154 -261q129 66 183 126t54 137q0 83 -54 135q-55 52 -142 52q-85 0 -140 -53t-55 -136z" />
<glyph unicode="'" horiz-adv-x="430" d="M134 934v509h160v-509h-160z" />
<glyph unicode="(" horiz-adv-x="636" d="M174 599q0 308 92 534q59 145 188 309h146q-90 -105 -156 -286q-93 -252 -93 -555q0 -453 246 -878h-153q-270 338 -270 876z" />
<glyph unicode=")" horiz-adv-x="636" d="M34 1442h146q129 -164 188 -309q92 -226 92 -534q0 -537 -271 -876h-153q109 188 158 327q88 252 88 551q0 303 -92 555q-66 183 -156 286z" />
<glyph unicode="*" horiz-adv-x="988" d="M132 1001l259 132l-259 131l65 118l245 -163l-16 294h134l-16 -294l245 163l65 -118l-258 -131l258 -132l-65 -116l-245 160l16 -291h-134l16 292l-245 -161z" />
<glyph unicode="+" horiz-adv-x="1238" d="M110 488v162h427v447h162v-447h427v-162h-427v-458h-162v458h-427z" />
<glyph unicode="," horiz-adv-x="538" d="M98 -257l100 459h185l-150 -459h-135z" />
<glyph unicode="-" horiz-adv-x="878" d="M110 488v162h656v-162h-656z" />
<glyph unicode="." horiz-adv-x="520" d="M145 104q0 49 33 81q33 33 81 33q49 0 81 -33q33 -32 33 -81q0 -48 -33 -81q-32 -33 -81 -33q-48 0 -81 33t-33 81z" />
<glyph unicode="/" horiz-adv-x="590" d="M0 -329l441 1773h149l-444 -1773h-146z" />
<glyph unicode="0" horiz-adv-x="1242" d="M89 722q0 342 140 542q143 203 392 203t391 -202q139 -199 139 -542q0 -345 -139 -544q-141 -203 -391 -203q-251 0 -392 202q-140 199 -140 544zM270 723q0 -274 91 -430q93 -160 260 -160t259 160q90 155 90 429q0 270 -91 427q-93 160 -258 160t-259 -161 q-92 -157 -92 -425z" />
<glyph unicode="1" horiz-adv-x="908" d="M98 977v190l384 276h176v-1443h-174v1252h-4z" />
<glyph unicode="2" horiz-adv-x="1159" d="M107 1026v1q0 189 136 315q136 125 340 125q193 0 327 -115t134 -281q0 -120 -67 -232q-65 -110 -247 -298l-365 -377v-4h703v-160h-952v124l508 535q145 153 193 232q47 79 47 169q0 104 -83 177q-84 73 -203 73q-127 0 -212 -81t-85 -202v-1h-174z" />
<glyph unicode="3" horiz-adv-x="1212" d="M91 382h173q12 -113 100 -180q90 -70 233 -70t236 73q92 73 92 186q0 127 -90 201q-89 74 -244 74h-181v152h173q124 0 203 72q79 71 79 181t-71 174q-75 66 -209 66q-124 0 -202 -66t-90 -180h-173q15 184 142 293q128 109 331 109q195 0 323 -105q130 -105 130 -267 q0 -135 -80 -227t-216 -116v-4q164 -10 261 -104q97 -95 97 -247q0 -184 -148 -303q-146 -118 -361 -118q-224 0 -362 113q-136 111 -146 293z" />
<glyph unicode="4" d="M77 300v163q172 319 633 980h266v-985h204v-158h-204v-300h-174v300h-725zM255 458h547v835h-3q-379 -541 -544 -831v-4z" />
<glyph unicode="5" horiz-adv-x="1198" d="M117 394h177q12 -115 101 -188q89 -72 219 -72q147 0 240 92q92 92 92 238t-92 239q-93 94 -237 94q-214 0 -309 -162h-169l79 808h826v-160h-678l-44 -470h4q104 139 323 139q208 0 342 -136q135 -137 135 -347q0 -217 -144 -355t-370 -138q-207 0 -345 117 q-139 117 -150 301z" />
<glyph unicode="6" horiz-adv-x="1226" d="M90 697q0 365 148 568q147 203 412 203q184 0 314 -102t165 -272h-183q-29 98 -110 157q-81 58 -188 58q-181 0 -280 -155t-104 -443h3q49 106 159 170t244 64q206 0 343 -136q136 -136 136 -341q0 -214 -144 -353q-145 -140 -367 -140q-162 0 -286 85q-124 84 -191 240 q-71 164 -71 397zM307 467q0 -139 95 -235q96 -97 234 -97t234 95t96 232q0 142 -92 233q-92 92 -235 92t-238 -91q-94 -91 -94 -229z" />
<glyph unicode="7" horiz-adv-x="1120" d="M75 1283v160h955v-167l-642 -1276h-189l653 1279v4h-777z" />
<glyph unicode="8" horiz-adv-x="1227" d="M89 390q0 135 85 237t225 134v4q-117 36 -185 123q-68 86 -68 200q0 163 133 271q132 108 333 108q202 0 334 -107q131 -108 131 -273q0 -113 -67 -198q-67 -87 -185 -124v-4q140 -33 226 -135q85 -102 85 -236q0 -181 -147 -298q-147 -116 -377 -116q-229 0 -376 117 q-147 116 -147 297zM272 403q0 -118 96 -194t244 -76q149 0 245 76q95 76 95 194q0 119 -95 195q-96 76 -245 76t-244 -76q-96 -77 -96 -195zM325 1071q0 -105 80 -172t207 -67q126 0 207 67q80 67 80 172q0 106 -80 174q-80 67 -207 67t-207 -68q-80 -67 -80 -173z" />
<glyph unicode="9" horiz-adv-x="1226" d="M75 975q0 214 145 353q144 140 366 140q163 0 287 -84q124 -85 190 -240q71 -164 71 -398q0 -365 -147 -567q-147 -203 -412 -203q-184 0 -315 102t-164 272h183q29 -98 110 -158q81 -59 188 -59q180 0 280 157q99 156 103 444h-3q-46 -107 -155 -172q-110 -64 -248 -64 q-206 0 -343 136q-136 136 -136 341zM257 981q0 -141 93 -233t235 -92q143 0 238 91t95 229q0 139 -95 234q-96 96 -235 96t-235 -95q-96 -94 -96 -230z" />
<glyph unicode=":" horiz-adv-x="520" d="M145 104q0 49 33 81q33 33 81 33q49 0 81 -33q33 -32 33 -81q0 -48 -33 -81q-32 -33 -81 -33q-48 0 -81 33t-33 81zM145 840q0 49 33 81q33 33 81 33q49 0 81 -33q33 -32 33 -81q0 -48 -33 -81q-32 -33 -81 -33q-48 0 -81 33t-33 81z" />
<glyph unicode=";" horiz-adv-x="520" d="M61 -257l98 459h187l-150 -459h-135zM145 840q0 49 33 81q33 33 81 33q49 0 81 -33q33 -32 33 -81q0 -48 -33 -81q-32 -33 -81 -33q-48 0 -81 33t-33 81z" />
<glyph unicode="&#x3c;" d="M179 498v142l879 526v-186l-707 -400v-9l707 -378v-186z" />
<glyph unicode="=" d="M130 301v154h977v-154h-977zM130 684v154h977v-154h-977z" />
<glyph unicode="&#x3e;" d="M179 8v186l707 378v9l-707 400v186l879 -526v-142z" />
<glyph unicode="?" horiz-adv-x="1002" d="M55 1066q9 171 117 275q117 113 319 113q187 0 307 -104q117 -102 117 -258q0 -219 -209 -345q-94 -56 -129 -107q-34 -49 -34 -129v-65h-175v92q-1 183 200 304q88 54 124 107q37 55 37 134q0 94 -67 154q-68 61 -178 61q-113 0 -181 -62q-69 -62 -77 -170h-171z M342 104q0 49 33 81q33 33 81 33q49 0 81 -33q33 -32 33 -81q0 -48 -33 -81q-32 -33 -81 -33q-48 0 -81 33t-33 81z" />
<glyph unicode="@" horiz-adv-x="1791" d="M97 601q0 373 231 604q229 230 595 230q352 0 575 -203q227 -205 227 -533q0 -242 -100 -386q-102 -147 -276 -147q-87 0 -150 47q-65 47 -74 121h-8q-68 -159 -254 -159q-156 0 -252 117t-96 308q0 182 97 298q97 115 251 115q80 0 147 -39q67 -38 95 -102h8v122h151 v-587q0 -111 113 -111q92 0 148 105q59 110 59 300q0 272 -188 440q-187 168 -486 168q-293 0 -482 -200q-190 -201 -190 -514q0 -331 201 -521q192 -181 503 -181q227 0 335 48v-126q-139 -49 -337 -49q-376 0 -604 216q-239 225 -239 619zM675 596q0 -130 56 -205 q57 -75 155 -75q103 0 164 76t61 204t-60 204q-61 75 -163 75q-100 0 -157 -74q-56 -74 -56 -205z" />
<glyph unicode="A" horiz-adv-x="1292" d="M24 0l532 1443h178l532 -1443h-189l-145 413h-574l-145 -413h-189zM411 566h468l-231 658h-6z" />
<glyph unicode="B" horiz-adv-x="1256" d="M139 0v1443h565q186 0 300 -99t114 -261q0 -113 -72 -204q-73 -92 -177 -111v-8q147 -19 235 -115q87 -96 87 -240q0 -191 -129 -298q-130 -107 -360 -107h-563zM319 159h356q331 0 331 255q0 252 -348 252h-339v-507zM319 821h288q160 0 244 62q85 62 85 179 q0 107 -71 165q-71 57 -202 57h-344v-463z" />
<glyph unicode="C" horiz-adv-x="1405" d="M83 722q0 340 177 542q177 203 473 203q236 0 400 -131q165 -132 199 -348h-182q-35 142 -148 227q-115 86 -269 86q-211 0 -338 -158t-127 -421q0 -266 126 -423t340 -157q159 0 268 73t148 205h182q-50 -214 -205 -329t-394 -115q-299 0 -474 202q-176 201 -176 544z " />
<glyph unicode="D" horiz-adv-x="1399" d="M139 0v1443h495q321 0 501 -190q180 -191 180 -531q0 -341 -180 -532q-179 -190 -501 -190h-495zM319 162h303q245 0 377 145q132 144 132 413q0 271 -131 416q-132 145 -378 145h-303v-1119z" />
<glyph unicode="E" horiz-adv-x="1131" d="M139 0v1443h894v-162h-714v-463h677v-160h-677v-496h714v-162h-894z" />
<glyph unicode="F" horiz-adv-x="1081" d="M139 0v1443h876v-162h-696v-496h639v-160h-639v-625h-180z" />
<glyph unicode="G" horiz-adv-x="1447" d="M83 729q0 338 179 538t482 200q234 0 398 -128q165 -129 205 -344h-189q-45 146 -153 226q-109 80 -261 80q-223 0 -349 -152q-127 -151 -127 -419q0 -272 128 -430t348 -158q192 0 312 113q120 114 120 295v26h-407v158h587v-137q0 -293 -162 -457q-161 -164 -450 -164 q-302 0 -482 204q-179 205 -179 549z" />
<glyph unicode="H" horiz-adv-x="1432" d="M139 0v1443h180v-624h792v624h180v-1443h-180v657h-792v-657h-180z" />
<glyph unicode="I" horiz-adv-x="460" d="M139 0v1443h180v-1443h-180z" />
<glyph unicode="J" horiz-adv-x="1014" d="M41 339h179q3 -92 66 -149q64 -58 162 -58q119 0 182 70q63 69 63 201v1040h180v-1041q0 -205 -112 -321q-112 -115 -312 -115q-180 0 -294 104q-114 105 -114 269z" />
<glyph unicode="K" horiz-adv-x="1260" d="M139 0v1443h180v-704h10l637 704h227l-593 -639l646 -804h-230l-541 676l-156 -172v-504h-180z" />
<glyph unicode="L" horiz-adv-x="1074" d="M139 0v1443h180v-1281h696v-162h-876z" />
<glyph unicode="M" horiz-adv-x="1702" d="M139 0v1443h209l498 -1204h8l498 1204h209v-1443h-168v1112h-7l-460 -1102h-152l-460 1102h-7v-1112h-168z" />
<glyph unicode="N" horiz-adv-x="1432" d="M139 0v1443h175l790 -1133h9v1133h178v-1443h-175l-790 1129h-9v-1129h-178z" />
<glyph unicode="O" horiz-adv-x="1498" d="M83 721q0 344 179 545t486 201t486 -201t179 -545t-179 -544q-179 -201 -486 -201t-486 201q-179 200 -179 544zM268 721q0 -266 129 -423q130 -156 351 -156t351 156q129 157 129 423q0 267 -129 424q-130 156 -351 156t-351 -156q-129 -157 -129 -424z" />
<glyph unicode="P" horiz-adv-x="1213" d="M139 0v1443h545q204 0 333 -129t129 -334t-130 -335t-334 -130h-363v-515h-180zM319 675h318q154 0 239 81q85 80 85 224t-84 223q-85 80 -240 80h-318v-608z" />
<glyph unicode="Q" horiz-adv-x="1498" d="M83 721q0 344 179 545t486 201t486 -201t179 -545q0 -423 -262 -621l191 -263h-202l-134 184q-115 -45 -258 -45q-307 0 -486 201q-179 200 -179 544zM268 721q0 -266 129 -423q130 -156 351 -156q81 0 153 23l-180 248h202l123 -168q182 154 182 476q0 267 -129 424 q-130 156 -351 156t-351 -156q-129 -157 -129 -424z" />
<glyph unicode="R" horiz-adv-x="1237" d="M139 0v1443h551q209 0 334 -117q126 -118 126 -313q0 -151 -77 -261t-213 -153l334 -599h-211l-309 571h-355v-571h-180zM319 730h355q139 0 214 72q76 72 76 205q0 130 -79 203t-219 73h-347v-553z" />
<glyph unicode="S" horiz-adv-x="1216" d="M70 397h181q13 -117 115 -188q101 -71 256 -71q146 0 242 69q95 70 95 176q0 91 -67 151q-66 58 -212 96l-185 48q-200 51 -292 143q-92 91 -92 238q0 180 143 294q142 114 367 114q215 0 356 -115q141 -116 147 -297h-180q-12 116 -100 183t-229 67q-140 0 -229 -66 q-88 -66 -88 -172q0 -82 65 -134q64 -53 211 -91l151 -40q224 -56 322 -149t98 -248q0 -198 -145 -313q-146 -116 -395 -116q-230 0 -376 115t-159 306z" />
<glyph unicode="T" horiz-adv-x="1210" d="M49 1281v162h1110v-162h-465v-1281h-180v1281h-465z" />
<glyph unicode="U" horiz-adv-x="1426" d="M139 506v937h180v-925q0 -167 103 -270q106 -106 290 -106t290 106q103 103 103 270v925h180v-937q0 -235 -152 -380q-157 -150 -421 -150t-421 150q-152 145 -152 380z" />
<glyph unicode="V" horiz-adv-x="1292" d="M24 1443h189l429 -1224h6l429 1224h189l-532 -1443h-178z" />
<glyph unicode="W" horiz-adv-x="1892" d="M44 1443h188l289 -1178h8l325 1178h182l325 -1178h8l289 1178h188l-393 -1443h-170l-333 1145h-10l-333 -1145h-170z" />
<glyph unicode="X" horiz-adv-x="1300" d="M44 0l491 723v7l-485 713h217l385 -580h7l390 580h205l-498 -722v-6l487 -715h-216l-383 575h-7l-389 -575h-204z" />
<glyph unicode="Y" horiz-adv-x="1254" d="M24 1443h205l394 -648h6l394 648h205l-512 -822v-621h-180v621z" />
<glyph unicode="Z" horiz-adv-x="1263" d="M97 0v128l823 1146v7h-795v162h1022v-128l-819 -1146v-7h836v-162h-1067z" />
<glyph unicode="[" horiz-adv-x="664" d="M204 -240v1684h452v-136h-284v-1413h296v-135h-464z" />
<glyph unicode="\" horiz-adv-x="590" d="M0 1444h149l441 -1773h-146z" />
<glyph unicode="]" horiz-adv-x="664" d="M-5 -105h297v1413h-284v136h451v-1684h-464v135z" />
<glyph unicode="^" horiz-adv-x="896" d="M54 816l298 627h190l298 -627h-167l-218 475h-16l-218 -475h-167z" />
<glyph unicode="_" horiz-adv-x="828" d="M-54 -107h936v-128h-936v128z" />
<glyph unicode="`" horiz-adv-x="1005" d="M295 1550h198l211 -300h-148z" />
<glyph unicode="a" horiz-adv-x="1062" d="M68 307q0 139 104 218q104 80 300 92l302 18v90q0 100 -64 154t-183 54q-94 0 -158 -45q-65 -45 -81 -121h-167q4 136 121 229q117 92 287 92q191 0 305 -94q114 -95 114 -254v-740h-165v187h-4q-46 -90 -140 -143q-94 -54 -207 -54q-164 0 -264 87t-100 230zM246 306 q0 -75 61 -120q60 -45 162 -45q132 0 219 76q86 77 86 193v87l-282 -18q-246 -15 -246 -173z" />
<glyph unicode="b" horiz-adv-x="1173" d="M127 0v1506h174v-603h4q107 185 346 185q204 0 330 -151q126 -152 126 -398q0 -247 -127 -398q-126 -151 -333 -151q-243 0 -351 192h-4v-182h-165zM300 539q0 -176 88 -285q87 -109 228 -109q142 0 227 107q86 107 86 287q0 179 -86 287q-85 107 -227 107 q-141 0 -228 -110q-88 -109 -88 -284z" />
<glyph unicode="c" horiz-adv-x="1060" d="M64 539q0 248 135 399q135 150 357 150q191 0 318 -110q117 -101 134 -251h-171q-17 91 -87 146q-76 60 -193 60q-142 0 -228 -108q-88 -108 -88 -286q0 -182 89 -289q86 -105 229 -105q234 0 280 200h171q-22 -159 -145 -256q-124 -99 -307 -99q-224 0 -358 147 q-136 150 -136 402z" />
<glyph unicode="d" horiz-adv-x="1173" d="M64 539q0 245 129 398q127 151 329 151q241 0 344 -185h4v603h174v-1506h-166v182h-3q-108 -192 -349 -192q-204 0 -333 151q-129 152 -129 398zM242 539q0 -179 87 -287q86 -107 228 -107q140 0 227 109t87 285t-87 285t-227 109q-142 0 -228 -108q-87 -108 -87 -286z " />
<glyph unicode="e" horiz-adv-x="1084" d="M64 535q0 251 133 402t353 151q216 0 342 -142q126 -143 126 -387v-68h-774v-10q0 -154 87 -246t231 -92q101 0 175 45q73 44 96 120h172q-22 -139 -148 -228q-126 -90 -299 -90q-227 0 -361 147q-133 147 -133 398zM244 630h593q-3 137 -83 221q-79 84 -207 84 q-127 0 -210 -84q-84 -84 -93 -221z" />
<glyph unicode="f" horiz-adv-x="629" d="M24 934v144h150v100q0 150 69 219q68 69 218 69q48 0 97 -9v-144q-37 8 -81 8q-68 0 -98 -34q-30 -33 -31 -109v-100h210v-144h-210v-934h-174v934h-150z" />
<glyph unicode="g" horiz-adv-x="1163" d="M64 543q0 247 126 396t334 149q238 0 351 -185h3v175h166v-1048q0 -193 -130 -304q-131 -111 -358 -111q-183 0 -305 81q-122 82 -141 216h181q19 -67 94 -107q74 -39 181 -39q140 0 222 68q82 67 82 182v169h-4q-108 -185 -346 -185q-205 0 -330 149q-126 150 -126 394z M242 543q0 -176 85 -282t226 -106q142 0 229 107q88 108 88 281q0 174 -88 282q-87 108 -229 108q-141 0 -226 -106q-85 -107 -85 -284z" />
<glyph unicode="h" horiz-adv-x="1166" d="M127 0v1506h174v-603h4q102 185 352 185q177 0 286 -110t109 -290v-688h-174v657q0 129 -72 203q-73 73 -201 73q-137 0 -220 -86q-84 -86 -84 -227v-620h-174z" />
<glyph unicode="i" horiz-adv-x="430" d="M104 1362q0 46 33 78q32 32 77 32q46 0 78 -32t32 -78q0 -45 -32 -77q-32 -33 -78 -33q-45 0 -77 33q-33 32 -33 77zM127 0v1078h174v-1078h-174z" />
<glyph unicode="j" horiz-adv-x="430" d="M-60 -251h27q88 0 125 38q36 37 36 129v1162h174v-1159q0 -164 -80 -241q-79 -76 -251 -76h-31v147zM105 1362q0 46 33 78q32 32 77 32q46 0 78 -32t32 -78q0 -45 -32 -77q-32 -33 -78 -33q-45 0 -77 33q-33 32 -33 77z" />
<glyph unicode="k" horiz-adv-x="1026" d="M127 0v1506h174v-910l483 482h212l-471 -466l485 -612h-202l-405 505l-102 -96v-409h-174z" />
<glyph unicode="l" horiz-adv-x="430" d="M127 0v1506h174v-1506h-174z" />
<glyph unicode="m" horiz-adv-x="1701" d="M117 0v1078h164v-175h4q38 86 120 136q81 49 186 49q228 0 302 -204h4q46 96 136 150t203 54q160 0 255 -96q96 -96 96 -256v-736h-174v696q0 112 -59 174q-60 63 -168 63t-177 -72q-70 -72 -70 -183v-678h-174v717q0 98 -61 157q-62 59 -163 59q-108 0 -179 -75 q-71 -76 -71 -189v-669h-174z" />
<glyph unicode="n" horiz-adv-x="1135" d="M117 0v1078h164v-175h4q103 185 352 185q178 0 281 -107q103 -106 103 -290v-691h-174v661q0 132 -67 202q-68 70 -195 70q-133 0 -213 -84q-81 -84 -81 -223v-626h-174z" />
<glyph unicode="o" horiz-adv-x="1124" d="M64 539q0 251 135 400t362 149t362 -149t135 -400t-135 -400t-362 -149t-362 149t-135 400zM241 539q0 -185 85 -290q85 -104 235 -104q151 0 235 104q85 105 85 290q0 186 -85 290q-84 104 -235 104t-235 -104q-85 -105 -85 -290z" />
<glyph unicode="p" horiz-adv-x="1163" d="M117 -360v1438h165v-175h4q47 84 142 135q95 50 207 50q207 0 334 -151q128 -152 128 -398t-127 -398q-127 -151 -331 -151q-237 0 -344 185h-4v-535h-174zM290 539q0 -176 87 -285q86 -109 226 -109q143 0 229 107q87 108 87 287q0 178 -87 286q-86 108 -229 108 q-139 0 -226 -109t-87 -285z" />
<glyph unicode="q" horiz-adv-x="1163" d="M64 539q0 247 127 398q126 151 333 151q244 0 351 -185h3v175h166v-1438h-174v535h-4q-107 -185 -346 -185q-204 0 -330 151q-126 152 -126 398zM242 539q0 -180 85 -287t226 -107t229 109q88 110 88 285t-88 284q-88 110 -229 110t-226 -107q-85 -108 -85 -287z" />
<glyph unicode="r" horiz-adv-x="649" d="M117 0v1078h164v-175h4q24 85 95 135t166 50q41 0 67 -7v-172q-28 12 -90 12q-105 0 -168 -70q-64 -70 -64 -184v-667h-174z" />
<glyph unicode="s" horiz-adv-x="984" d="M69 303h175q28 -169 254 -169q110 0 175 43q64 42 64 115q0 57 -38 91q-38 33 -130 57l-189 49q-281 73 -281 288q0 136 112 223q111 87 287 87q164 0 276 -88q111 -87 116 -220h-167q-8 76 -70 120t-161 44q-100 0 -161 -43t-61 -114q0 -107 182 -153l164 -41 q163 -41 230 -106q66 -64 66 -182q0 -138 -120 -226q-119 -88 -306 -88q-174 0 -289 86q-115 87 -128 227z" />
<glyph unicode="t" horiz-adv-x="634" d="M24 934v144h150v243h174v-243h210v-144h-210v-647q0 -144 134 -144q45 0 75 5v-147q-38 -9 -112 -9q-146 0 -209 66q-62 67 -62 222v654h-150z" />
<glyph unicode="u" horiz-adv-x="1135" d="M112 387v691h174v-661q0 -132 68 -202q67 -70 194 -70q133 0 213 84q81 84 81 223v626h174v-1078h-164v178h-4q-102 -188 -353 -188q-177 0 -280 107q-103 106 -103 290z" />
<glyph unicode="v" horiz-adv-x="1022" d="M24 1078h182l302 -890h4l303 890h181l-398 -1078h-176z" />
<glyph unicode="w" horiz-adv-x="1512" d="M29 1078h172l219 -881h4l247 881h168l247 -881h4l219 881h172l-302 -1078h-176l-246 838h-4l-246 -838h-176z" />
<glyph unicode="x" horiz-adv-x="991" d="M34 0l369 539l-363 539h194l263 -407h4l260 407h194l-365 -532l360 -546h-194l-261 413h-4l-263 -413h-194z" />
<glyph unicode="y" horiz-adv-x="1026" d="M24 1078h185l302 -901h4l302 901h183l-422 -1144q-69 -187 -147 -256q-79 -69 -222 -69q-39 0 -76 7v147q30 -6 71 -6q75 0 120 40q45 41 78 138l21 64z" />
<glyph unicode="z" horiz-adv-x="990" d="M94 0v126l601 805v3h-600v144h796v-129l-597 -802v-3h600v-144h-800z" />
<glyph unicode="{" horiz-adv-x="734" d="M147 519v191q100 0 139 47q39 46 39 166v255q0 344 383 344h60v-141h-45q-125 0 -180 -52q-54 -53 -54 -173v-296q0 -216 -179 -234v-25q179 -17 179 -236v-334q0 -118 55 -171t179 -53h45v-141h-60q-383 0 -383 353v289q0 119 -39 165t-139 46z" />
<glyph unicode="|" horiz-adv-x="446" d="M149 -326v1769h146v-1769h-146z" />
<glyph unicode="}" horiz-adv-x="734" d="M-35 -193h45q124 0 179 53t55 171v334q0 219 179 236v25q-179 18 -179 234v296q0 120 -54 173q-55 52 -180 52h-45v141h60q383 0 383 -344v-255q0 -120 39 -166q39 -47 139 -47v-191q-100 0 -139 -46t-39 -165v-289q0 -353 -383 -353h-60v141z" />
<glyph unicode="~" d="M114 558q-1 160 81 252q81 92 224 92q122 0 247 -125q96 -100 158 -100q131 0 142 179h159q1 -160 -81 -252q-81 -92 -223 -92q-122 0 -246 124q-99 101 -160 101q-131 0 -141 -179h-160z" />
<glyph unicode="&#xa2;" d="M113 725q0 220 118 369q117 149 315 178v171h172v-169q166 -18 281 -125q114 -106 125 -249h-174q-21 104 -106 164q-84 60 -209 60q-152 0 -248 -112q-96 -111 -96 -287q0 -178 96 -292q97 -114 248 -114q274 0 315 219h174q-17 -148 -128 -249q-112 -103 -278 -120 v-169h-172v171q-199 31 -316 181t-117 373z" />
<glyph unicode="&#xa3;" d="M97 0v152q133 30 220 130q88 99 88 219q0 66 -24 152h-284v144h234q-61 171 -61 263q0 196 137 306q138 111 380 111q187 0 300 -53v-160q-93 54 -291 54q-161 0 -251 -67q-91 -68 -91 -187q0 -97 60 -267h471v-144h-424q21 -84 21 -145q0 -225 -209 -350v-4h786v-154 h-1062z" />
<glyph unicode="&#xa5;" d="M17 1443h205l394 -647h6l393 647h205l-457 -736h223v-136h-277v-166h277v-136h-277v-269h-180v269h-277v136h277v166h-277v136h223z" />
<glyph unicode="&#xa8;" horiz-adv-x="1004" d="M192 1373q0 46 33 79t79 33q47 0 79 -33q33 -32 33 -79q0 -46 -33 -79t-79 -33t-79 33t-33 79zM586 1373q0 46 33 79t79 33q47 0 79 -33q33 -32 33 -79q0 -46 -33 -79t-79 -33t-79 33t-33 79z" />
<glyph unicode="&#xa9;" horiz-adv-x="1706" d="M59 626q0 339 230 567q228 227 563 227q336 0 564 -227q229 -228 229 -567q0 -338 -229 -566q-228 -228 -564 -228q-335 0 -563 228q-230 228 -230 566zM200 626q0 -279 189 -467q188 -187 463 -187q276 0 464 187q188 188 188 467q0 281 -188 468q-187 186 -464 186 q-275 0 -463 -186q-189 -188 -189 -468zM474 628q0 192 108 306q107 114 287 114q150 0 249 -82q93 -77 112 -198h-139q-17 68 -73 110q-61 46 -149 46q-116 0 -184 -79q-69 -80 -69 -217q0 -139 70 -220q68 -80 183 -80q183 0 222 151h139q-19 -123 -112 -197 q-98 -78 -248 -78q-181 0 -288 114q-108 114 -108 310z" />
<glyph unicode="&#xab;" horiz-adv-x="1303" d="M134 561v8l350 416h204l-351 -413v-14l351 -413h-204zM612 561v8l350 416h204l-351 -413v-14l351 -413h-204z" />
<glyph unicode="&#xad;" horiz-adv-x="878" d="M110 488v162h656v-162h-656z" />
<glyph unicode="&#xae;" horiz-adv-x="1070" d="M99 1117q0 179 126 303q127 124 309 124t309 -124q126 -124 126 -303t-126 -303q-127 -124 -309 -124t-308 124q-127 125 -127 303zM199 1117q0 -140 97 -238q98 -97 238 -97q141 0 238 97q97 98 97 238q0 141 -97 238t-238 97q-140 0 -238 -97q-97 -97 -97 -238z M363 927v408h200q63 0 104 -35q40 -35 40 -89q0 -105 -96 -120l116 -164h-108l-99 151h-71v-151h-86zM449 1145h97q68 0 68 62q0 56 -65 56h-100v-118z" />
<glyph unicode="&#xb4;" horiz-adv-x="1005" d="M298 1250l211 300h198l-261 -300h-148z" />
<glyph unicode="&#xb8;" horiz-adv-x="1005" d="M321 -354q38 -15 122 -15q120 0 120 73q0 66 -150 66h-55v74l63 164l109 -8l-52 -142q209 0 209 -150q0 -76 -62 -126t-157 -51q-83 -1 -147 17v98z" />
<glyph unicode="&#xbb;" horiz-adv-x="1302" d="M134 145l351 413v14l-351 413h204l350 -416v-8l-350 -416h-204zM612 145l351 413v14l-351 413h204l350 -416v-8l-350 -416h-204z" />
<glyph unicode="&#x2c6;" horiz-adv-x="1006" d="M163 1250l277 300h124l277 -300h-163l-173 197h-6l-173 -197h-163z" />
<glyph unicode="&#x2da;" horiz-adv-x="1048" d="M324 1385q0 82 59 140q58 59 140 59t140 -59q59 -58 59 -140t-59 -140q-58 -59 -140 -59t-140 59q-59 58 -59 140zM407 1385q0 -48 34 -82t82 -34t82 34t34 82t-34 82t-82 34t-82 -34t-34 -82z" />
<glyph unicode="&#x2dc;" horiz-adv-x="1006" d="M198 1273q0 118 47 184t131 66q77 0 151 -76t103 -76q62 0 62 138h114q0 -115 -48 -183t-128 -68q-71 0 -143 76q-73 76 -106 76q-69 0 -69 -137h-114z" />
<glyph unicode="&#x401;" horiz-adv-x="1151" d="M149 0v1443h894v-162h-714v-463h677v-160h-677v-496h714v-162h-894zM287 1697q0 46 33 79t79 33q47 0 79 -33q33 -32 33 -79q0 -46 -33 -79t-79 -33t-79 33t-33 79zM681 1697q0 46 33 79t79 33q47 0 79 -33q33 -32 33 -79q0 -46 -33 -79t-79 -33t-79 33t-33 79z" />
<glyph unicode="&#x402;" horiz-adv-x="1677" d="M59 1281v162h1110v-162h-465v-520h8q135 146 366 146q215 0 346 -128q132 -128 132 -337q0 -208 -120 -333q-121 -125 -322 -125q-87 0 -130 18v161q44 -16 128 -16q123 0 194 78q70 78 70 215q0 138 -84 222q-85 83 -225 83q-115 0 -218 -60q-104 -60 -145 -150v-535 h-180v1281h-465z" />
<glyph unicode="&#x403;" horiz-adv-x="1071" d="M149 0v1443h856v-164h-675v-1279h-181zM511 1550l231 299h198l-281 -299h-148z" />
<glyph unicode="&#x404;" horiz-adv-x="1421" d="M93 722q0 340 177 542q177 203 473 203q230 0 393 -126q162 -125 202 -333h-184q-39 134 -151 213q-112 80 -260 80q-192 0 -317 -130q-127 -132 -143 -352h640v-162h-643q9 -236 136 -376q127 -139 328 -139q153 0 261 68q106 68 149 192h184q-53 -206 -207 -316 t-388 -110q-299 0 -474 202q-176 201 -176 544z" />
<glyph unicode="&#x405;" horiz-adv-x="1235" d="M79 397h181q13 -117 115 -188q101 -71 256 -71q146 0 242 69q95 70 95 176q0 91 -67 151q-66 58 -212 96l-185 48q-200 51 -292 143q-92 91 -92 238q0 180 143 294q142 114 367 114q215 0 356 -115q141 -116 147 -297h-180q-12 116 -100 183t-229 67q-140 0 -229 -66 q-88 -66 -88 -172q0 -82 65 -134q64 -53 211 -91l151 -40q224 -56 322 -149t98 -248q0 -198 -145 -313q-146 -116 -395 -116q-230 0 -376 115t-159 306z" />
<glyph unicode="&#x406;" horiz-adv-x="480" d="M149 0v1443h180v-1443h-180z" />
<glyph unicode="&#x407;" horiz-adv-x="480" d="M-69 1697q0 46 33 79t79 33q47 0 79 -33q33 -32 33 -79q0 -46 -33 -79t-79 -33t-79 33t-33 79zM150 0v1443h180v-1443h-180zM325 1697q0 46 33 79t79 33q47 0 79 -33q33 -32 33 -79q0 -46 -33 -79t-79 -33t-79 33t-33 79z" />
<glyph unicode="&#x408;" horiz-adv-x="1034" d="M51 339h179q3 -92 66 -149q64 -58 162 -58q119 0 182 70q63 69 63 201v1040h180v-1041q0 -205 -112 -321q-112 -115 -312 -115q-180 0 -294 104q-114 105 -114 269z" />
<glyph unicode="&#x409;" horiz-adv-x="2153" d="M49 1v161q22 -6 54 -6q113 0 163 111q40 87 51 280l52 896h871v-535h353q204 0 334 -127t130 -328q0 -200 -129 -327q-130 -126 -333 -126h-535v1281h-527l-46 -741q-17 -275 -97 -405q-88 -144 -271 -144q-42 0 -70 10zM1240 162h308q155 0 240 76q84 76 84 215 q0 140 -85 217q-84 76 -239 76h-308v-584z" />
<glyph unicode="&#x40a;" horiz-adv-x="2154" d="M149 0v1443h180v-624h752v624h180v-624h353q204 0 334 -112t130 -289q0 -184 -129 -301q-130 -117 -333 -117h-535v657h-752v-657h-180zM1261 162h308q155 0 240 67q84 67 84 189q0 115 -85 177q-84 62 -239 62h-308v-495z" />
<glyph unicode="&#x40b;" horiz-adv-x="1697" d="M59 1281v162h1110v-162h-465v-518h8q133 144 363 144q220 0 350 -136q131 -135 131 -364v-407h-180v395q0 167 -83 258q-84 92 -236 92q-112 0 -212 -60q-100 -59 -141 -150v-535h-180v1281h-465z" />
<glyph unicode="&#x40c;" horiz-adv-x="1267" d="M149 0v1443h180v-665h8l620 665h226l-656 -690l723 -753h-247l-666 701h-8v-701h-180zM531 1550l231 299h198l-281 -299h-148z" />
<glyph unicode="&#x40e;" horiz-adv-x="1220" d="M34 1443h192l391 -935h8l382 935h187l-442 -1030q-103 -240 -202 -331q-100 -92 -259 -92q-54 0 -80 13v162q32 -8 80 -8q155 0 236 151zM311 1850h123q0 -85 53 -142q53 -58 134 -58t134 58q53 57 53 142h123q0 -132 -86 -215q-87 -84 -224 -84t-224 84q-86 83 -86 215z " />
<glyph unicode="&#x40f;" horiz-adv-x="1431" d="M149 0v1443h180v-1281h771v1281h180v-1443h-482v-285h-167v285h-482z" />
<glyph unicode="&#x410;" horiz-adv-x="1312" d="M34 0l532 1443h178l532 -1443h-189l-145 413h-574l-145 -413h-189zM421 566h468l-231 658h-6z" />
<glyph unicode="&#x411;" horiz-adv-x="1257" d="M149 0v1443h843v-162h-663v-413h343q204 0 334 -121q130 -122 130 -314q0 -191 -129 -312q-130 -121 -333 -121h-525zM329 162h298q155 0 240 70q84 71 84 201q0 131 -85 202q-84 71 -239 71h-298v-544z" />
<glyph unicode="&#x412;" horiz-adv-x="1276" d="M149 0v1443h565q186 0 300 -99t114 -261q0 -113 -72 -204q-73 -92 -177 -111v-8q147 -19 235 -115q87 -96 87 -240q0 -191 -129 -298q-130 -107 -360 -107h-563zM329 159h356q331 0 331 255q0 252 -348 252h-339v-507zM329 821h288q160 0 244 62q85 62 85 179 q0 107 -71 165q-71 57 -202 57h-344v-463z" />
<glyph unicode="&#x413;" horiz-adv-x="1071" d="M149 0v1443h856v-164h-675v-1279h-181z" />
<glyph unicode="&#x414;" horiz-adv-x="1480" d="M29 162h107q138 73 155 373l55 908h893v-1281h180v-447h-167v285h-1056v-285h-167v447zM359 162h700v1119h-552l-47 -750q-16 -258 -101 -361v-8z" />
<glyph unicode="&#x415;" horiz-adv-x="1151" d="M149 0v1443h894v-162h-714v-463h677v-160h-677v-496h714v-162h-894z" />
<glyph unicode="&#x416;" horiz-adv-x="1967" d="M19 0l675 750l-618 693h228l578 -665h8v665h180v-665h8l580 665h223l-616 -691l681 -752h-242l-626 701h-8v-701h-180v701h-8l-631 -701h-232z" />
<glyph unicode="&#x417;" horiz-adv-x="1186" d="M74 376h174q12 -114 108 -182q95 -68 244 -68q145 0 235 74q90 75 90 194q0 124 -88 193q-88 70 -244 70h-203v160h195q132 0 216 72q84 73 84 186q0 112 -77 177t-210 65q-134 0 -216 -65q-83 -65 -94 -179h-175q14 188 145 296q132 108 347 108q202 0 333 -109 q130 -108 130 -277q0 -120 -74 -213q-75 -93 -194 -122v-8q144 -19 227 -115q83 -97 83 -244q0 -178 -147 -301q-147 -122 -361 -122q-228 0 -373 113q-145 112 -155 297z" />
<glyph unicode="&#x418;" horiz-adv-x="1452" d="M149 0v1443h178v-1152h16l780 1152h178v-1443h-178v1148h-16l-780 -1148h-178z" />
<glyph unicode="&#x419;" horiz-adv-x="1452" d="M149 0v1443h178v-1152h16l780 1152h178v-1443h-178v1148h-16l-780 -1148h-178zM414 1850h123q0 -85 53 -142q53 -58 134 -58t134 58q53 57 53 142h123q0 -132 -86 -215q-87 -84 -224 -84t-224 84q-86 83 -86 215z" />
<glyph unicode="&#x41a;" horiz-adv-x="1278" d="M149 0v1443h180v-665h8l620 665h226l-656 -690l723 -753h-247l-666 701h-8v-701h-180z" />
<glyph unicode="&#x41b;" horiz-adv-x="1391" d="M49 1v161q22 -6 54 -6q103 0 152 91q50 91 62 300l52 896h871v-1443h-180v1281h-527l-46 -741q-18 -288 -106 -418q-87 -131 -262 -131q-40 0 -70 10z" />
<glyph unicode="&#x41c;" horiz-adv-x="1722" d="M149 0v1443h209l498 -1204h8l498 1204h209v-1443h-168v1112h-7l-460 -1102h-152l-460 1102h-7v-1112h-168z" />
<glyph unicode="&#x41d;" horiz-adv-x="1452" d="M149 0v1443h180v-624h792v624h180v-1443h-180v657h-792v-657h-180z" />
<glyph unicode="&#x41e;" horiz-adv-x="1518" d="M93 721q0 344 179 545t486 201t486 -201t179 -545t-179 -544q-179 -201 -486 -201t-486 201q-179 200 -179 544zM278 721q0 -266 129 -423q130 -156 351 -156t351 156q129 157 129 423q0 267 -129 424q-130 156 -351 156t-351 -156q-129 -157 -129 -424z" />
<glyph unicode="&#x41f;" horiz-adv-x="1431" d="M149 0v1443h1131v-1443h-178v1279h-772v-1279h-181z" />
<glyph unicode="&#x420;" horiz-adv-x="1232" d="M149 0v1443h545q204 0 333 -129t129 -334t-130 -335t-334 -130h-363v-515h-180zM329 675h318q154 0 239 81q85 80 85 224t-84 223q-85 80 -240 80h-318v-608z" />
<glyph unicode="&#x421;" horiz-adv-x="1421" d="M93 722q0 340 177 542q177 203 473 203q230 0 393 -126q162 -125 202 -333h-184q-39 134 -151 213q-112 80 -260 80q-211 0 -338 -158t-127 -421q0 -266 126 -423t340 -157q153 0 261 68q106 68 149 192h184q-53 -206 -207 -316t-388 -110q-299 0 -474 202 q-176 201 -176 544z" />
<glyph unicode="&#x422;" horiz-adv-x="1230" d="M59 1281v162h1110v-162h-465v-1281h-180v1281h-465z" />
<glyph unicode="&#x423;" horiz-adv-x="1220" d="M34 1443h192l391 -935h8l382 935h187l-442 -1030q-103 -240 -202 -331q-100 -92 -259 -92q-54 0 -80 13v162q32 -8 80 -8q155 0 236 151z" />
<glyph unicode="&#x424;" horiz-adv-x="1623" d="M84 727q0 266 172 426q172 161 466 169v141h178v-141q293 -7 465 -168t172 -428q0 -266 -172 -426q-172 -161 -465 -169v-151h-178v151q-293 7 -466 168q-172 161 -172 428zM266 727q0 -195 122 -312q123 -116 334 -123v869q-211 -8 -334 -125q-122 -116 -122 -309z M900 292q211 8 333 125q122 116 122 309q0 194 -122 311t-333 124v-869z" />
<glyph unicode="&#x425;" horiz-adv-x="1320" d="M54 0l491 723v7l-485 713h217l385 -580h7l390 580h205l-498 -722v-6l487 -715h-216l-383 575h-7l-389 -575h-204z" />
<glyph unicode="&#x426;" horiz-adv-x="1522" d="M149 0v1443h180v-1281h772v1281h180v-1281h180v-447h-167v285h-1145z" />
<glyph unicode="&#x427;" horiz-adv-x="1367" d="M124 1066v377h180v-365q0 -173 94 -275q93 -101 253 -101q130 0 235 59t150 157v525h180v-1443h-180v684h-8q-143 -148 -376 -148q-238 0 -383 145q-145 146 -145 385z" />
<glyph unicode="&#x428;" horiz-adv-x="1884" d="M149 0v1443h180v-1281h522v1281h180v-1281h522v1281h180v-1443h-1584z" />
<glyph unicode="&#x429;" horiz-adv-x="1974" d="M149 0v1443h180v-1281h522v1281h180v-1281h522v1281h180v-1281h180v-447h-167v285h-1597z" />
<glyph unicode="&#x42a;" horiz-adv-x="1502" d="M99 1281v162h510v-535h353q204 0 334 -127t130 -328q0 -200 -129 -327q-130 -126 -333 -126h-535v1281h-330zM609 162h308q155 0 240 76q84 76 84 215q0 140 -85 217q-84 76 -239 76h-308v-584z" />
<glyph unicode="&#x42b;" horiz-adv-x="1670" d="M149 0v1443h180v-535h353q204 0 334 -127q130 -128 130 -328t-129 -326q-129 -127 -333 -127h-535zM329 162h308q155 0 240 76q84 76 84 215q0 140 -85 217q-84 76 -239 76h-308v-584zM1339 0v1443h180v-1443h-180z" />
<glyph unicode="&#x42c;" horiz-adv-x="1222" d="M149 0v1443h180v-535h353q204 0 334 -127q130 -128 130 -328t-129 -326q-129 -127 -333 -127h-535zM329 162h308q155 0 240 76q84 76 84 215q0 140 -85 217q-84 76 -239 76h-308v-584z" />
<glyph unicode="&#x42d;" horiz-adv-x="1421" d="M81 402h184q43 -124 152 -192t263 -68q201 0 325 139q125 140 134 376h-643v162h640q-16 221 -140 352q-123 130 -315 130q-149 0 -263 -80t-153 -213h-184q40 207 205 333q164 126 395 126q296 0 471 -203q174 -202 174 -542q0 -343 -173 -544q-174 -202 -472 -202 q-235 0 -390 110q-157 111 -210 316z" />
<glyph unicode="&#x42e;" horiz-adv-x="1991" d="M149 0v1443h180v-624h268q25 306 197 482q173 176 452 176q302 0 477 -204q173 -203 173 -551t-173 -551q-174 -205 -477 -205q-290 0 -463 187q-171 184 -188 504h-266v-657h-180zM778 722q0 -271 124 -429q125 -161 344 -161q216 0 341 161q124 159 124 429 q0 272 -124 430q-125 159 -341 159t-342 -159t-126 -430z" />
<glyph unicode="&#x42f;" horiz-adv-x="1287" d="M54 0l414 577q-154 36 -246 149q-93 114 -93 274q0 196 129 319q130 124 333 124h545v-1443h-180v555h-290l-398 -555h-214zM314 1000q0 -136 85 -209q84 -74 239 -74h318v564h-318q-155 0 -240 -73q-84 -73 -84 -208z" />
<glyph unicode="&#x430;" horiz-adv-x="1076" d="M78 307q0 139 104 218q104 80 300 92l302 18v90q0 100 -64 154t-183 54q-94 0 -158 -45q-65 -45 -81 -121h-167q4 136 121 229q117 92 287 92q191 0 305 -94q114 -95 114 -254v-740h-165v187h-4q-46 -90 -140 -143q-94 -54 -207 -54q-164 0 -264 87t-100 230zM256 306 q0 -75 61 -120q60 -45 162 -45q132 0 219 76q86 77 86 193v87l-282 -18q-246 -15 -246 -173z" />
<glyph unicode="&#x431;" horiz-adv-x="1164" d="M84 632q0 455 130 654q132 203 445 215l77 3q188 9 281 58v-153q-61 -55 -273 -64l-78 -3q-219 -9 -313 -119q-86 -102 -121 -360h8q108 193 372 193q218 0 347 -143q129 -142 129 -384q0 -254 -134 -401q-135 -147 -368 -147q-248 0 -375 165t-127 486zM262 529 q0 -187 85 -290q84 -103 239 -103t239 103q85 103 85 290q0 178 -85 276q-84 97 -239 97t-239 -97q-85 -98 -85 -276z" />
<glyph unicode="&#x432;" horiz-adv-x="1041" d="M127 0v1078h462q150 0 237 -74q86 -74 86 -202q0 -82 -51 -149t-125 -83v-8q101 -14 163 -83q61 -69 61 -169q0 -143 -99 -227q-99 -83 -270 -83h-464zM299 144h288q202 0 202 169q0 173 -235 173h-255v-342zM299 630h240q203 0 203 154q0 150 -175 150h-268v-304z" />
<glyph unicode="&#x433;" horiz-adv-x="888" d="M127 0v1078h690v-144h-518v-934h-172z" />
<glyph unicode="&#x434;" horiz-adv-x="1222" d="M19 144h90q110 72 128 333l42 601h735v-934h172v-429h-162v285h-843v-285h-162v429zM310 144h532v790h-409l-34 -461q-17 -227 -89 -321v-8z" />
<glyph unicode="&#x435;" horiz-adv-x="1104" d="M74 535q0 251 133 402t353 151q216 0 342 -142q126 -143 126 -387v-68h-774v-10q0 -154 87 -246t231 -92q101 0 175 45q73 44 96 120h172q-22 -139 -148 -228q-126 -90 -299 -90q-227 0 -361 147q-133 147 -133 398zM254 630h593q-3 137 -83 221q-79 84 -207 84 q-127 0 -210 -84q-84 -84 -93 -221z" />
<glyph unicode="&#x436;" horiz-adv-x="1566" d="M24 0l489 565l-478 513h215l436 -479h8v479h172v-479h8l436 479h214l-476 -510l492 -568h-225l-441 521h-8v-521h-172v521h-8l-441 -521h-221z" />
<glyph unicode="&#x437;" horiz-adv-x="981" d="M59 276h177q16 -71 80 -110q65 -39 166 -39q117 0 183 51q64 49 64 131q0 179 -247 179h-163v144h163q211 0 211 161q0 72 -50 113q-54 45 -156 45q-97 0 -160 -39t-74 -104h-170q17 133 126 211t278 78q179 0 279 -81q97 -78 97 -210q0 -84 -49 -148q-50 -66 -131 -85 v-8q217 -47 217 -247q0 -150 -115 -243t-303 -93q-176 0 -292 80q-117 80 -131 214z" />
<glyph unicode="&#x438;" horiz-adv-x="1163" d="M127 0v1078h172v-809h8l555 809h172v-1078h-172v809h-8l-555 -809h-172z" />
<glyph unicode="&#x439;" horiz-adv-x="1163" d="M127 0v1078h172v-809h8l555 809h172v-1078h-172v809h-8l-555 -809h-172zM262 1550h128q0 -89 52 -147q55 -60 142 -60t142 60q52 58 52 147h128q0 -138 -89 -224q-90 -86 -233 -86t-233 86q-89 86 -89 224z" />
<glyph unicode="&#x43a;" horiz-adv-x="1029" d="M127 0v1078h172v-479h8l466 479h216l-507 -511l521 -567h-225l-471 521h-8v-521h-172z" />
<glyph unicode="&#x43b;" horiz-adv-x="1121" d="M29 2v158q24 -8 54 -8q76 0 116 88q35 77 46 237l42 601h705v-1078h-172v934h-377l-34 -461q-18 -240 -83 -352q-75 -130 -234 -130q-37 0 -63 11z" />
<glyph unicode="&#x43c;" horiz-adv-x="1455" d="M127 0v1078h209l390 -847h8l391 847h201v-1078h-173v767h-8l-352 -737h-134l-352 737h-8v-767h-172z" />
<glyph unicode="&#x43d;" horiz-adv-x="1148" d="M127 0v1078h172v-446h548v446h172v-1078h-172v488h-548v-488h-172z" />
<glyph unicode="&#x43e;" horiz-adv-x="1144" d="M74 539q0 251 135 400t362 149t362 -149t135 -400t-135 -400t-362 -149t-362 149t-135 400zM251 539q0 -185 85 -290q85 -104 235 -104q151 0 235 104q85 105 85 290q0 186 -85 290q-84 104 -235 104t-235 -104q-85 -105 -85 -290z" />
<glyph unicode="&#x43f;" horiz-adv-x="1138" d="M127 0v1078h882v-1078h-172v934h-538v-934h-172z" />
<glyph unicode="&#x440;" horiz-adv-x="1183" d="M127 -360v1438h165v-175h4q47 84 142 135q95 50 207 50q207 0 334 -151q128 -152 128 -398t-127 -398q-127 -151 -331 -151q-237 0 -344 185h-4v-535h-174zM300 539q0 -176 87 -285q86 -109 226 -109q143 0 229 107q87 108 87 287q0 178 -87 286q-86 108 -229 108 q-139 0 -226 -109t-87 -285z" />
<glyph unicode="&#x441;" horiz-adv-x="1078" d="M74 539q0 248 135 399q135 150 357 150q184 0 309 -102q115 -94 140 -238h-173q-23 83 -91 132q-74 53 -184 53q-142 0 -228 -108q-88 -108 -88 -286q0 -182 89 -289q86 -105 229 -105q221 0 275 182h173q-27 -151 -148 -243q-123 -94 -301 -94q-224 0 -358 147 q-136 150 -136 402z" />
<glyph unicode="&#x442;" horiz-adv-x="952" d="M39 934v144h872v-144h-350v-934h-172v934h-350z" />
<glyph unicode="&#x443;" horiz-adv-x="1046" d="M34 1078h185l302 -901h4l302 901h183l-422 -1144q-69 -187 -147 -256q-79 -69 -222 -69q-39 0 -76 7v147q30 -6 71 -6q75 0 120 40q45 41 78 138l21 64z" />
<glyph unicode="&#x444;" horiz-adv-x="1429" d="M74 539q0 249 153 399q151 149 403 153v352h168v-352q251 -5 402 -154q153 -150 153 -398q0 -249 -153 -399q-151 -149 -402 -153v-347h-168v347q-252 5 -403 154q-153 150 -153 398zM249 539q0 -183 103 -291q102 -107 278 -112v806q-176 -4 -278 -111 q-103 -108 -103 -292zM798 136q175 4 277 111q103 108 103 292q0 183 -103 291q-102 107 -277 112v-806z" />
<glyph unicode="&#x445;" horiz-adv-x="1011" d="M44 0l369 539l-363 539h194l263 -407h4l260 407h194l-365 -532l360 -546h-194l-261 413h-4l-263 -413h-194z" />
<glyph unicode="&#x446;" horiz-adv-x="1207" d="M127 0v1078h172v-934h528v934h172v-934h172v-429h-162v285h-882z" />
<glyph unicode="&#x447;" horiz-adv-x="1070" d="M99 770v308h172v-308q0 -108 55 -170q57 -63 158 -63q189 0 285 136v405h172v-1078h-172v491h-8q-121 -107 -290 -107q-175 0 -275 107q-97 104 -97 279z" />
<glyph unicode="&#x448;" horiz-adv-x="1588" d="M127 0v1078h172v-934h408v934h172v-934h408v934h172v-1078h-1332z" />
<glyph unicode="&#x449;" horiz-adv-x="1667" d="M127 0v1078h172v-934h408v934h172v-934h408v934h172v-934h172v-429h-162v285h-1342z" />
<glyph unicode="&#x44a;" horiz-adv-x="1180" d="M39 934v144h462v-346h203q185 0 295 -99t110 -267t-110 -267t-295 -99h-375v934h-290zM501 144h203q106 0 170 61q63 60 63 161t-64 162q-63 60 -169 60h-203v-444z" />
<glyph unicode="&#x44b;" horiz-adv-x="1344" d="M127 0v1078h172v-346h203q185 0 295 -99t110 -267t-110 -267t-295 -99h-375zM299 144h203q106 0 170 61q63 60 63 161t-64 162q-63 60 -169 60h-203v-444zM1043 0v1078h172v-1078h-172z" />
<glyph unicode="&#x44c;" horiz-adv-x="978" d="M127 0v1078h172v-346h203q185 0 295 -99t110 -267t-110 -267t-295 -99h-375zM299 144h203q106 0 170 61q63 60 63 161t-64 162q-63 60 -169 60h-203v-444z" />
<glyph unicode="&#x44d;" horiz-adv-x="1078" d="M59 326h173q54 -181 275 -181q133 0 219 91q88 93 97 252h-494v144h489q-18 138 -103 220q-84 81 -206 81q-110 0 -184 -53q-68 -49 -91 -132h-173q25 143 140 238q125 102 309 102q222 0 357 -150q135 -151 135 -399q0 -252 -136 -402q-134 -147 -358 -147 q-178 0 -300 93q-121 92 -149 243z" />
<glyph unicode="&#x44e;" horiz-adv-x="1544" d="M127 0v1078h172v-446h200q23 219 150 342q128 123 332 123q226 0 356 -149q131 -149 131 -409q0 -259 -131 -409q-130 -149 -356 -149q-214 0 -343 135t-143 372h-196v-488h-172zM672 539q0 -192 80 -297q81 -106 229 -106t229 106q80 105 80 297t-80 298 q-81 105 -229 105t-229 -105q-80 -106 -80 -298z" />
<glyph unicode="&#x44f;" horiz-adv-x="1020" d="M49 0l301 418q-114 32 -179 112t-65 191q0 166 110 262q109 95 295 95h380v-1078h-172v386h-195l-275 -386h-200zM278 725q0 -86 64 -140q64 -55 169 -55h208v404h-208q-107 0 -170 -55q-63 -56 -63 -154z" />
<glyph unicode="&#x451;" horiz-adv-x="1104" d="M74 535q0 251 133 402t353 151q216 0 342 -142q126 -143 126 -387v-68h-774v-10q0 -154 87 -246t231 -92q101 0 175 45q73 44 96 120h172q-22 -139 -148 -228q-126 -90 -299 -90q-227 0 -361 147q-133 147 -133 398zM251 1373q0 46 33 79t79 33q47 0 79 -33 q33 -32 33 -79q0 -46 -33 -79t-79 -33t-79 33t-33 79zM254 630h593q-3 137 -83 221q-79 84 -207 84q-127 0 -210 -84q-84 -84 -93 -221zM645 1373q0 46 33 79t79 33q47 0 79 -33q33 -32 33 -79q0 -46 -33 -79t-79 -33t-79 33t-33 79z" />
<glyph unicode="&#x452;" horiz-adv-x="1204" d="M33 1247v124h122v185h174v-185h260v-124h-260v-344h4q102 185 352 185q177 0 286 -110t109 -290v-772q0 -164 -81 -239t-252 -75h-30v147h26q91 0 128 39q35 37 35 128v741q0 129 -72 203q-73 73 -201 73q-137 0 -220 -86q-84 -86 -84 -227v-620h-174v1247h-122z" />
<glyph unicode="&#x453;" horiz-adv-x="897" d="M127 0v1078h690v-144h-518v-934h-172zM377 1250l211 300h198l-261 -300h-148z" />
<glyph unicode="&#x454;" horiz-adv-x="1078" d="M74 539q0 248 135 399q135 150 357 150q184 0 309 -102q115 -95 140 -238h-173q-23 83 -91 132q-74 53 -184 53q-122 0 -206 -81q-85 -82 -103 -220h489v-144h-494q9 -159 97 -252q86 -91 219 -91q221 0 275 181h173q-28 -151 -149 -243q-122 -93 -300 -93 q-224 0 -358 147q-136 150 -136 402z" />
<glyph unicode="&#x455;" horiz-adv-x="1003" d="M79 303h175q28 -169 254 -169q110 0 175 43q64 42 64 115q0 57 -38 91q-38 33 -130 57l-189 49q-281 73 -281 288q0 136 112 223q111 87 287 87q164 0 276 -88q111 -87 116 -220h-167q-8 76 -70 120t-161 44q-100 0 -161 -43t-61 -114q0 -107 182 -153l164 -41 q163 -41 230 -106q66 -64 66 -182q0 -138 -120 -226q-119 -88 -306 -88q-174 0 -289 86q-115 87 -128 227z" />
<glyph unicode="&#x456;" horiz-adv-x="450" d="M114 1362q0 46 33 78q32 32 77 32q46 0 78 -32t32 -78q0 -45 -32 -77q-32 -33 -78 -33q-45 0 -77 33q-33 32 -33 77zM137 0v1078h174v-1078h-174z" />
<glyph unicode="&#x457;" horiz-adv-x="450" d="M-84 1373q0 46 33 79t79 33q47 0 79 -33q33 -32 33 -79q0 -46 -33 -79t-79 -33t-79 33t-33 79zM138 0v1078h174v-1078h-174zM310 1373q0 46 33 79t79 33q47 0 79 -33q33 -32 33 -79q0 -46 -33 -79t-79 -33t-79 33t-33 79z" />
<glyph unicode="&#x458;" horiz-adv-x="463" d="M-50 -251h27q88 0 125 38q36 37 36 129v1162h174v-1159q0 -164 -80 -241q-79 -76 -251 -76h-31v147zM115 1362q0 46 33 78q32 32 77 32q46 0 78 -32t32 -78q0 -45 -32 -77q-32 -33 -78 -33q-45 0 -77 33q-33 32 -33 77z" />
<glyph unicode="&#x459;" horiz-adv-x="1671" d="M29 2v158q24 -8 54 -8q76 0 116 88q35 77 46 237l42 601h705v-346h203q185 0 295 -99t110 -267t-110 -267t-295 -99h-375v934h-377l-34 -461q-18 -240 -83 -352q-75 -130 -234 -130q-37 0 -63 11zM992 144h203q106 0 170 61q63 60 63 161t-64 162q-63 60 -169 60h-203 v-444z" />
<glyph unicode="&#x45a;" horiz-adv-x="1678" d="M127 0v1078h172v-416h528v416h172v-416h213q181 0 288 -89q107 -90 107 -242t-107 -242q-107 -89 -288 -89h-385v518h-528v-518h-172zM999 144h213q102 0 163 51q60 51 60 136t-61 136t-162 51h-213v-374z" />
<glyph unicode="&#x45b;" horiz-adv-x="1204" d="M33 1247v124h122v185h174v-185h260v-124h-260v-344h4q102 185 352 185q177 0 286 -110t109 -290v-688h-174v657q0 129 -72 203q-73 73 -201 73q-137 0 -220 -86q-84 -86 -84 -227v-620h-174v1247h-122z" />
<glyph unicode="&#x45c;" horiz-adv-x="1029" d="M127 0v1078h172v-479h8l466 479h216l-507 -511l521 -567h-225l-471 521h-8v-521h-172zM437 1250l211 300h198l-261 -300h-148z" />
<glyph unicode="&#x45e;" horiz-adv-x="1046" d="M34 1078h185l302 -901h4l302 901h183l-422 -1144q-69 -187 -147 -256q-79 -69 -222 -69q-39 0 -76 7v147q30 -6 71 -6q75 0 120 40q45 41 78 138l21 64zM200 1550h128q0 -89 52 -147q55 -60 142 -60t142 60q52 58 52 147h128q0 -138 -89 -224q-90 -86 -233 -86t-233 86 q-89 86 -89 224z" />
<glyph unicode="&#x45f;" horiz-adv-x="1138" d="M127 0v1078h172v-934h538v934h172v-1078h-360v-285h-162v285h-360z" />
<glyph unicode="&#x490;" horiz-adv-x="1071" d="M149 0v1443h689v285h167v-449h-675v-1279h-181z" />
<glyph unicode="&#x491;" horiz-adv-x="888" d="M127 0v1078h528v285h162v-429h-518v-934h-172z" />
<glyph unicode="&#x2000;" horiz-adv-x="925" />
<glyph unicode="&#x2001;" horiz-adv-x="1850" />
<glyph unicode="&#x2002;" horiz-adv-x="925" />
<glyph unicode="&#x2003;" horiz-adv-x="1850" />
<glyph unicode="&#x2004;" horiz-adv-x="616" />
<glyph unicode="&#x2005;" horiz-adv-x="462" />
<glyph unicode="&#x2006;" horiz-adv-x="308" />
<glyph unicode="&#x2007;" horiz-adv-x="308" />
<glyph unicode="&#x2008;" horiz-adv-x="231" />
<glyph unicode="&#x2009;" horiz-adv-x="370" />
<glyph unicode="&#x200a;" horiz-adv-x="102" />
<glyph unicode="&#x2010;" horiz-adv-x="878" d="M110 488v162h656v-162h-656z" />
<glyph unicode="&#x2011;" horiz-adv-x="878" d="M110 488v162h656v-162h-656z" />
<glyph unicode="&#x2012;" horiz-adv-x="878" d="M110 488v162h656v-162h-656z" />
<glyph unicode="&#x2013;" horiz-adv-x="1024" d="M0 504v162h1024v-162h-1024z" />
<glyph unicode="&#x2014;" horiz-adv-x="2048" d="M0 504v162h2048v-162h-2048z" />
<glyph unicode="&#x2018;" horiz-adv-x="538" d="M80 1443h175l127 -509h-155z" />
<glyph unicode="&#x2019;" horiz-adv-x="538" d="M154 934l127 509h175l-147 -509h-155z" />
<glyph unicode="&#x201a;" horiz-adv-x="538" d="M84 -387l127 509h175l-147 -509h-155z" />
<glyph unicode="&#x201c;" horiz-adv-x="926" d="M80 1443h175l127 -509h-155zM468 1443h175l127 -509h-155z" />
<glyph unicode="&#x201d;" horiz-adv-x="926" d="M154 934l127 509h175l-147 -509h-155zM542 934l127 509h175l-147 -509h-155z" />
<glyph unicode="&#x201e;" horiz-adv-x="926" d="M84 -387l127 509h175l-147 -509h-155zM472 -387l127 509h175l-147 -509h-155z" />
<glyph unicode="&#x2022;" horiz-adv-x="988" d="M189 606q0 125 89 215q90 89 215 89t215 -89q89 -90 89 -215t-89 -215q-90 -89 -215 -89t-215 89q-89 90 -89 215z" />
<glyph unicode="&#x2026;" horiz-adv-x="1514" d="M145 104q0 49 33 81q33 33 81 33q49 0 81 -33q33 -32 33 -81q0 -48 -33 -81q-32 -33 -81 -33q-48 0 -81 33t-33 81zM644 104q0 49 33 81q33 33 81 33q49 0 81 -33q33 -32 33 -81q0 -48 -33 -81q-32 -33 -81 -33q-48 0 -81 33t-33 81zM1139 104q0 49 33 81q33 33 81 33 q49 0 81 -33q33 -32 33 -81q0 -48 -33 -81q-32 -33 -81 -33q-48 0 -81 33t-33 81z" />
<glyph unicode="&#x202f;" horiz-adv-x="370" />
<glyph unicode="&#x2039;" horiz-adv-x="824" d="M134 561v8l350 416h204l-351 -413v-14l351 -413h-204z" />
<glyph unicode="&#x203a;" horiz-adv-x="824" d="M134 145l351 413v14l-351 413h204l350 -416v-8l-350 -416h-204z" />
<glyph unicode="&#x205f;" horiz-adv-x="462" />
<glyph unicode="&#x20ac;" d="M53 494v136h189q-4 39 -4 91q0 34 4 98h-189v136h212q63 248 257 384q182 128 434 128q135 0 201 -22v-163q-74 18 -201 18q-179 0 -308 -87q-134 -91 -189 -258h540v-136h-570q-5 -52 -5 -99q0 -42 5 -90h570v-136h-543q55 -172 189 -264q130 -89 311 -89q140 0 201 18 v-162q-63 -21 -201 -21q-255 0 -437 129q-194 138 -255 389h-211z" />
<glyph unicode="&#x2122;" horiz-adv-x="2051" d="M146 1307v136h710v-136h-280v-677h-151v677h-279zM986 630v813h163l281 -594h14l280 594h165v-813h-136v557h-14l-256 -533h-94l-253 533h-15v-557h-135z" />
<glyph unicode="&#x25fc;" horiz-adv-x="1080" d="M0 0v1080h1080v-1080h-1080z" />
</font>
</defs>
</svg>
